<svg id="Layer_1" enable-background="new 0 0 60 60" height="50" viewBox="0 0 60 60" width="50" xmlns="http://www.w3.org/2000/svg" fill="#01e8fe"><path d="m9.1200562 9.321167v25.0230713c0 .4762573.385376.8616333.8616333.8616333h10.8355713c.1821289.4177856.4576416.7797852.7078857 1.0870972.2028198.249939.413147.5082397.4712524.6875.0647583.1985474.0471191.5443726.0302734.8792725-.0319824.6251831-.0715332 1.4035034.3870239 2.0320435.3336182.4588013.8204346.6887207 1.2940063.8441162l-3.4370728 8.0463257c-.1557007.3643799-.0421143.7884521.274292 1.0265503.3171997.2389526.7556152.2297363 1.0626831-.0209961l2.0371094-1.6618652.2069702 2.6210938c.031189.3945923.328186.7177124.7194214.7824707.0471191.0075684.0942383.0109863.1397095.0109863.3407593 0 .6554565-.2019653.7926025-.5233765l3.3670044-7.8816528c.0876465-.0322266.1774292-.0634766.262085-.0958862.3189088-.121155.6487428-.2473757.8674928-.2473757s.548584.1262207.8666382.2473755c.0863037.032959.1755371.0661011.2650146.0988159l3.3657837 7.8787231c.137146.3214111.4518433.5233765.7926025.5233765.0454102 0 .0925293-.003418.1396484-.0109863.3912964-.0647583.6882935-.3878784.7194214-.7824707l.2070313-2.6210938 2.0362549 1.6618652c.3062744.2507324.7446289.2599487 1.0626831.0209961.3164063-.2380981.4299927-.6621704.274292-1.0265503l-3.4371338-8.0465088c.4736938-.1553955.9611206-.3849487 1.2948608-.8439331.4577637-.6293945.4182129-1.4068604.387085-2.031189-.0168457-.3348999-.0344849-.6815796.0302734-.8818359.0580444-.1784058.2684326-.4367065.4711914-.6865845.2502441-.307312.5253906-.6688843.7073364-1.0863037h10.8353271c.4762573 0 .8616333-.385376.8616333-.8616333v-25.0230712c0-.4762573-.385376-.8616333-.8616333-.8616333h-40.0366209c-.4762574 0-.8616333.385376-.8616333.8616333zm16.1738281 37.7992554-.0605469-.7698975c-.0252686-.3189087-.2255249-.5982666-.520874-.7244263-.2927856-.1245728-.6335449-.0765991-.8826294.1253662l-.5991211.4879761 2.0528564-4.8052368c.0953979.126709.1937866.2766113.2905273.4265137.3197632.4939575.7235718 1.0869141 1.3827515 1.3668823zm10.8771362-1.3689576c-.24823-.2019653-.5881958-.249939-.8826904-.1253662-.2953491.1261597-.4956055.4055176-.520813.7244263l-.0606079.7698975-1.6630859-3.8931274c.6588745-.2800293 1.0623779-.8719482 1.3812256-1.3657837.097229-.1499023.1958618-.3001709.2915649-.427002l2.0526733 4.8041382zm.9684448-10.5464477c-.2894287.3551025-.6167603.7581177-.7741089 1.2419434-.163208.5015259-.1362915 1.0324707-.1127319 1.5003052.0168457.3348389.0404053.7942505-.0588989.930603-.1035156.1422119-.5511475.2625122-.8776245.3500366-.4509888.1203003-.961731.2574463-1.3841553.5645752-.4172974.3045654-.7025757.7446289-.9533081 1.1334229-.1960449.302063-.439209.6781616-.6116943.7345581-.1539917.0471191-.576416-.1119385-.8851929-.2305908-.4425659-.1691285-.9449463-.360962-1.4817505-.360962s-1.0391846.1918335-1.4817505.3609619c-.3104858.1186523-.7354126.2768555-.8851929.2305908-.1724854-.0563965-.4165039-.4324951-.6116943-.7354126-.2507324-.3879395-.5351563-.8280029-.9533081-1.1325684-.4224243-.3071289-.9331665-.4442749-1.3833008-.5645752-.3264771-.0875244-.7741699-.2078247-.8776245-.3500366-.1001587-.1363525-.0765991-.5957642-.0597534-.930603.0244141-.4678345.0513306-.9987793-.1118774-1.4994507-.1573486-.4854736-.4855347-.8876953-.7741699-1.2427979-.2296753-.2818604-.5157471-.6335449-.5157471-.8262329s.2860718-.5444336.5157471-.8262939c.2886353-.3551025.6168213-.7573242.7741699-1.2419434.163208-.5015259.1362915-1.0324097.1118774-1.5002441-.0168457-.3348999-.0404053-.7943115.0597534-.9306641.1026611-.1413574.550293-.2616577.8776245-.3491821.4501343-.1211548.9608765-.2583008 1.3840942-.5654297.4173584-.3045654.7026367-.7446289.9533691-1.1333618.1960449-.302124.439209-.6782227.6125488-.7346191.1472168-.053833.574707.1119385.8834839.2305908.442566.1691284.9449464.3609619 1.4817506.3609619s1.0391846-.1918335 1.4817505-.3609619c.3087769-.1186523.737915-.2844238.8843384-.2305908.1733398.0563965.4165039.4324951.6116943.7346191.2515869.3887329.5368652.8295898.9550171 1.1333618.4224243.3071289.9331665.4442749 1.3833008.5654297.3264771.0875244.7749634.2078247.8776245.3483887.0993042.137146.0757446.5965576.0588989.9314575-.0235596.4678345-.0504761.9987183.1127319 1.5002441.1573486.4846191.4846802.8868408.7733154 1.2419434.2296753.2827148.5157471.633606.5157471.8262939s-.2860717.5435181-.5149536.826233zm-26.2961425-25.0222778h38.3133545v23.2999267h-10.003357c-.1826782-.3881836-.4416504-.727356-.6776733-1.017334-.2036133-.2498779-.413147-.5081787-.4711914-.6865845-.0647583-.2002563-.0471191-.5460815-.0302734-.8817749.0311279-.6243896.0706787-1.4018555-.3878784-2.0320435-.4619751-.633606-1.2167358-.8364258-1.8242188-.9987793-.3206177-.0866699-.6520996-.1750488-.8162231-.2944946-.1589966-.1161499-.3432617-.4005127-.520813-.6756592-.3433228-.5317993-.7716064-1.1923218-1.5263672-1.4380493-.7312012-.2372437-1.4211426.0269775-2.0320435.2600098-.3180542.1212159-.6478882.2473755-.8666382.2473755s-.548584-.1261597-.8674927-.2473755c-.6091919-.2330322-1.2983398-.4963989-2.031189-.2600098-.7547607.2457275-1.182251.9071045-1.5255127 1.4380493-.1784058.2751465-.3626709.5595093-.520874.6756592-.1640625.1194458-.4956055.2078247-.8170166.2944946-.6066284.1623535-1.3622437.3651733-1.8242188.9987793-.4585571.6293335-.4190063 1.4076538-.3870239 2.0328369.0168457.3348999.0344849.6807251-.0302734.880127-.0581055.1784058-.2684326.4367065-.4712524.6866455-.2365112.2904663-.4956055.6298218-.6784058 1.0181274h-10.003418v-23.2999266z"/><path d="m30 30.0925293c-2.3635864 0-4.2861938 1.9226685-4.2861938 4.2862549 0 2.3635254 1.9226074 4.2861938 4.2861938 4.2861938s4.2861938-1.9226685 4.2861938-4.2861938c0-2.3635864-1.9226074-4.2862549-4.2861938-4.2862549zm0 6.8491821c-1.4135742 0-2.5629883-1.149353-2.5629883-2.5629272 0-1.4136353 1.1494141-2.5629883 2.5629883-2.5629883s2.5629883 1.149353 2.5629883 2.5629883c0 1.4135742-1.1494141 2.5629272-2.5629883 2.5629272z"/><path d="m17.0597534 15.9170532h25.8804932c.4762573 0 .8616333-.385376.8616333-.8616333 0-.4761963-.385376-.8615723-.8616333-.8615723h-25.8804932c-.4762573 0-.8616333.385376-.8616333.8615723 0 .4762573.385376.8616333.8616333.8616333z"/><path d="m42.9402466 21.9643555c.4762573 0 .8616333-.3853149.8616333-.8615723s-.385376-.8616333-.8616333-.8616333h-25.8804932c-.4762573 0-.8616333.385376-.8616333.8616333s.385376.8615723.8616333.8615723z"/></svg>